<?xml version="1.0" encoding="iso-8859-1"?>
<!-- Generator: Adobe Illustrator 19.0.0, SVG Export Plug-In . SVG Version: 6.00 Build 0)  -->
<svg version="1.1" id="Layer_1" xmlns="http://www.w3.org/2000/svg" xmlns:xlink="http://www.w3.org/1999/xlink" x="0px" y="0px"
	 viewBox="0 0 511.999 511.999" style="enable-background:new 0 0 511.999 511.999;" xml:space="preserve">
<g>
	<g>
		<path d="M456.951,269.361c-4.427,0-8.017,3.589-8.017,8.017v218.588H63.064v-64.668c0-4.427-3.589-8.017-8.017-8.017
			c-4.427,0-8.017,3.589-8.017,8.017v72.685c0,4.427,3.589,8.017,8.017,8.017h401.903c4.427,0,8.017-3.589,8.017-8.017V277.378
			C464.968,272.95,461.378,269.361,456.951,269.361z"/>
	</g>
</g>
<g>
	<g>
		<path d="M508.827,189.755L260.845,1.63c-2.865-2.173-6.826-2.173-9.689,0l-98.304,74.575V50.238h9.086
			c4.427,0,8.017-3.589,8.017-8.017V8.017c0-4.427-3.589-8.017-8.017-8.017H42.221c-4.427,0-8.017,3.589-8.017,8.017v34.205
			c0,4.427,3.589,8.017,8.017,8.017h9.086v103L3.172,189.755c-2.743,2.08-3.851,5.68-2.753,8.942
			c1.098,3.263,4.156,5.461,7.598,5.461h39.015v184.384c0,4.427,3.589,8.017,8.017,8.017c4.427,0,8.017-3.589,8.017-8.017v-192.4
			c0-4.427-3.589-8.017-8.017-8.017H31.849L255.999,18.079l224.152,170.046h-23.2c-4.427,0-8.017,3.589-8.017,8.017v38.48
			c0,4.427,3.589,8.017,8.017,8.017c4.427,0,8.017-3.589,8.017-8.017v-30.463h39.015c3.443,0,6.501-2.198,7.598-5.461
			C512.679,195.435,511.57,191.835,508.827,189.755z M50.238,34.205V16.034H153.92v18.171H50.238z M136.818,88.368L67.34,141.075
			V50.238h69.478V88.368z"/>
	</g>
</g>
<g>
	<g>
		<path d="M429.598,441.014l-59.858-59.858c-7.137-7.138-18.245-9.044-27.359-4.685l-39.621-39.62
			c17.547-21.876,28.061-49.623,28.061-79.783c0-28.833-9.376-56.047-27.116-78.697c-2.73-3.486-7.77-4.098-11.254-1.368
			c-3.486,2.73-4.098,7.769-1.368,11.254c15.508,19.801,23.706,43.596,23.706,68.811c0,61.592-50.107,111.699-111.699,111.699
			S91.39,318.66,91.39,257.069s50.109-111.699,111.699-111.699c20.248,0,40.077,5.472,57.344,15.822
			c3.798,2.277,8.721,1.042,10.998-2.755s1.043-8.721-2.755-10.997c-19.756-11.843-42.436-18.104-65.587-18.104
			c-70.432,0-127.733,57.3-127.733,127.733s57.301,127.732,127.733,127.732c34.509,0,65.86-13.762,88.869-36.078l39.094,39.094
			c-4.252,8.936-2.711,19.964,4.676,27.351l59.858,59.858c9.27,9.272,24.742,9.272,34.012,0
			C438.975,465.649,438.975,450.39,429.598,441.014z M418.686,463.23c-2.997,3.503-8.502,3.719-11.762,0.459l-59.858-59.858
			c-2.916-2.916-3.107-7.743-0.424-10.878c2.997-3.503,8.501-3.719,11.762-0.459l59.858,59.858
			C421.177,455.268,421.369,460.095,418.686,463.23z"/>
	</g>
</g>
<g>
	<g>
		<path d="M203.089,163.541c-51.572,0-93.528,41.956-93.528,93.528c0,51.572,41.957,93.528,93.528,93.528
			s93.528-41.956,93.528-93.528S254.661,163.541,203.089,163.541z M203.089,334.563c-42.731,0-77.495-34.764-77.495-77.495
			s34.765-77.495,77.495-77.495s77.495,34.764,77.495,77.495S245.82,334.563,203.089,334.563z"/>
	</g>
</g>
<g>
	<g>
		<path d="M270.188,253.628c-10.504-22.108-39.35-38.78-67.099-38.78s-56.594,16.673-67.099,38.781
			c-1.034,2.177-1.034,4.704,0,6.882c10.505,22.108,39.35,38.779,67.099,38.779s56.595-16.673,67.099-38.78
			C271.221,258.332,271.221,255.805,270.188,253.628z M175.874,276.859c-9.973-4.724-18.523-11.717-23.521-19.791
			c4.999-8.073,13.549-15.065,23.521-19.791c-4.054,5.559-6.454,12.398-6.454,19.791S171.821,271.3,175.874,276.859z
			 M203.089,274.705c-9.725,0-17.637-7.912-17.637-17.637s7.912-17.637,17.637-17.637s17.637,7.912,17.637,17.637
			S212.814,274.705,203.089,274.705z M230.305,276.859c4.054-5.559,6.454-12.398,6.454-19.791s-2.401-14.231-6.454-19.791
			c9.973,4.726,18.522,11.717,23.521,19.791C248.827,265.142,240.277,272.134,230.305,276.859z"/>
	</g>
</g>
<g>
</g>
<g>
</g>
<g>
</g>
<g>
</g>
<g>
</g>
<g>
</g>
<g>
</g>
<g>
</g>
<g>
</g>
<g>
</g>
<g>
</g>
<g>
</g>
<g>
</g>
<g>
</g>
<g>
</g>
</svg>
