<?xml version="1.0" encoding="utf-8"?>
<!-- Generator: Adobe Illustrator 21.1.0, SVG Export Plug-In . SVG Version: 6.00 Build 0)  -->
<svg version="1.1" id="Capa_1" xmlns="http://www.w3.org/2000/svg" xmlns:xlink="http://www.w3.org/1999/xlink" x="0px" y="0px"
	 viewBox="0 0 280.2 280.2" style="enable-background:new 0 0 280.2 280.2;" xml:space="preserve">
<style type="text/css">
	.st0{fill:#222220;}
</style>
<g>
	<path class="st0" d="M136.2,8.2c33,0,64.2,12.1,88.5,34.1l14.5-14.5c3.2-3.2,7.5-5,11.9-5c8.3,0,15.4,5.9,16.8,14.1l7.8,45.8
		c0.8,4.9-0.5,10-3.8,13.8c-3.2,3.8-8,6-12.9,6c-1,0-1.9-0.1-2.9-0.2l-45.8-7.8C204.1,93.4,199,89,197,82.9s-0.3-12.6,4.2-17.1
		l13.2-13.2c-21.5-19.3-49.1-29.8-78.2-29.8c-64.7,0-117.4,52.7-117.4,117.4s52.7,117.4,117.4,117.4h0.2c0,0,0,0,0,0
		c4,0,7.2,3.2,7.3,7.2c0,4-3.2,7.3-7.2,7.3h-0.3c-72.8,0-132-59.2-132-132S63.4,8.2,136.2,8.2z M210.9,78.5c0.2,0.5,0.6,1.4,1.9,1.6
		l45.8,7.8c1.2,0.2,2-0.5,2.3-0.8c0.3-0.4,0.7-1,0.5-2l-7.8-45.8c-0.3-1.6-1.7-2-2.4-2c-0.6,0-1.2,0.2-1.7,0.7l-38,38
		C210.6,77,210.7,78,210.9,78.5z"/>
	<path class="st0" d="M202.9,236.8l0.4-0.3c3.3-2.3,7.8-1.5,10.1,1.8c2.3,3.3,1.5,7.8-1.8,10.1l-0.5,0.3c-1.3,0.9-2.7,1.3-4.1,1.3
		c-2.3,0-4.6-1.1-6-3.1C198.8,243.6,199.6,239.1,202.9,236.8z"/>
	<path class="st0" d="M229,212.1c2.5-3.2,7-3.8,10.2-1.3c3.2,2.5,3.8,7,1.3,10.2l-0.3,0.4c-1.4,1.8-3.6,2.8-5.7,2.8
		c-1.6,0-3.1-0.5-4.5-1.5c-3.2-2.5-3.7-7-1.3-10.2L229,212.1z"/>
	<path class="st0" d="M171,252.3l0.5-0.2c3.8-1.2,7.9,0.9,9.1,4.8c1.2,3.8-0.9,7.9-4.8,9.1l-0.5,0.2c-0.7,0.2-1.4,0.3-2.2,0.3
		c-3.1,0-6-2-6.9-5.1C165,257.6,167.2,253.5,171,252.3z"/>
	<path class="st0" d="M246.2,181.3c1.4-3.8,5.6-5.7,9.4-4.3c3.8,1.4,5.7,5.6,4.3,9.4l-0.1,0.2c-1.1,2.9-3.9,4.7-6.8,4.7
		c-0.8,0-1.7-0.1-2.6-0.5c-3.8-1.4-5.7-5.6-4.3-9.4L246.2,181.3z"/>
	<path class="st0" d="M137.2,182.4c-4,0-7.3-3.3-7.3-7.3v-32.7H97.3c-4,0-7.3-3.3-7.3-7.3c0-4,3.3-7.3,7.3-7.3H130V95.2
		c0-4,3.3-7.3,7.3-7.3c4,0,7.3,3.3,7.3,7.3v32.7h32.7c4,0,7.3,3.3,7.3,7.3c0,4-3.3,7.3-7.3,7.3h-32.7v32.7
		C144.5,179.2,141.2,182.4,137.2,182.4z"/>
</g>
</svg>
