<?xml version="1.0" encoding="iso-8859-1"?>
<!-- Generator: Adobe Illustrator 19.0.0, SVG Export Plug-In . SVG Version: 6.00 Build 0)  -->
<svg version="1.1" id="Capa_1" xmlns="http://www.w3.org/2000/svg" xmlns:xlink="http://www.w3.org/1999/xlink" x="0px" y="0px"
	 viewBox="0 0 512 512" style="enable-background:new 0 0 512 512;" xml:space="preserve">
<g>
	<g>
		<path d="M53.333,0H10.667C4.779,0,0,4.779,0,10.667v42.667C0,59.221,4.779,64,10.667,64h42.667C59.221,64,64,59.221,64,53.333
			V10.667C64,4.779,59.221,0,53.333,0z"/>
	</g>
</g>
<g>
	<g>
		<path d="M501.333,0h-42.667C452.779,0,448,4.779,448,10.667v42.667C448,59.221,452.779,64,458.667,64h42.667
			C507.221,64,512,59.221,512,53.333V10.667C512,4.779,507.221,0,501.333,0z"/>
	</g>
</g>
<g>
	<g>
		<path d="M53.333,448H10.667C4.779,448,0,452.779,0,458.667v42.667C0,507.221,4.779,512,10.667,512h42.667
			C59.221,512,64,507.221,64,501.333v-42.667C64,452.779,59.221,448,53.333,448z"/>
	</g>
</g>
<g>
	<g>
		<path d="M501.333,448h-42.667c-5.888,0-10.667,4.779-10.667,10.667v42.667c0,5.888,4.779,10.667,10.667,10.667h42.667
			c5.888,0,10.667-4.779,10.667-10.667v-42.667C512,452.779,507.221,448,501.333,448z"/>
	</g>
</g>
<g>
	<g>
		<path d="M32,42.667c-5.888,0-10.667,4.779-10.667,10.667v405.333c0,5.888,4.779,10.667,10.667,10.667s10.667-4.779,10.667-10.667
			V53.333C42.667,47.445,37.888,42.667,32,42.667z"/>
	</g>
</g>
<g>
	<g>
		<path d="M458.667,21.333H53.333c-5.888,0-10.667,4.779-10.667,10.667s4.779,10.667,10.667,10.667h405.333
			c5.888,0,10.667-4.779,10.667-10.667S464.555,21.333,458.667,21.333z"/>
	</g>
</g>
<g>
	<g>
		<path d="M480,42.667c-5.888,0-10.667,4.779-10.667,10.667v405.333c0,5.888,4.779,10.667,10.667,10.667
			c5.888,0,10.667-4.779,10.667-10.667V53.333C490.667,47.445,485.888,42.667,480,42.667z"/>
	</g>
</g>
<g>
	<g>
		<path d="M458.667,469.333H53.333c-5.888,0-10.667,4.779-10.667,10.667c0,5.888,4.779,10.667,10.667,10.667h405.333
			c5.888,0,10.667-4.779,10.667-10.667C469.333,474.112,464.555,469.333,458.667,469.333z"/>
	</g>
</g>
<g>
</g>
<g>
</g>
<g>
</g>
<g>
</g>
<g>
</g>
<g>
</g>
<g>
</g>
<g>
</g>
<g>
</g>
<g>
</g>
<g>
</g>
<g>
</g>
<g>
</g>
<g>
</g>
<g>
</g>
</svg>
