<?xml version="1.0" encoding="iso-8859-1"?>
<!-- Generator: Adobe Illustrator 19.0.0, SVG Export Plug-In . SVG Version: 6.00 Build 0)  -->
<svg version="1.1" id="Capa_1" xmlns="http://www.w3.org/2000/svg" xmlns:xlink="http://www.w3.org/1999/xlink" x="0px" y="0px"
	 viewBox="0 0 382.293 382.293" style="enable-background:new 0 0 382.293 382.293;" xml:space="preserve">
<g>
	<g>
		<path d="M251.447,34.133H134.26c-3.768,0-6.827,3.058-6.827,6.827s3.058,6.827,6.827,6.827h117.187
			c3.772,0,6.827-3.058,6.827-6.827S255.215,34.133,251.447,34.133z"/>
	</g>
</g>
<g>
	<g>
		<path d="M361.813,34.133h-78.51c-3.768,0-6.827,3.058-6.827,6.827s3.058,6.827,6.827,6.827h71.683v75.093H27.307V47.787h71.68
			c3.768,0,6.827-3.058,6.827-6.827s-3.058-6.827-6.827-6.827H20.48c-3.768,0-6.827,3.058-6.827,6.827v88.747
			c0,3.768,3.058,6.827,6.827,6.827h341.333c3.768,0,6.827-3.058,6.827-6.827V40.96C368.64,37.192,365.582,34.133,361.813,34.133z"
			/>
	</g>
</g>
<g>
	<g>
		<path d="M361.813,122.88H20.48c-3.768,0-6.827,3.058-6.827,6.827v218.952c0,18.548,15.087,33.635,33.635,33.635h287.717
			c18.548,0,33.635-15.087,33.635-33.635V129.707C368.64,125.938,365.582,122.88,361.813,122.88z M354.99,348.658
			c0,11.018-8.963,19.982-19.982,19.982H47.288c-11.018,0-19.982-8.963-19.982-19.982V136.533H354.99V348.658z"/>
	</g>
</g>
<g>
	<g>
		<path d="M116.053,0c-11.295,0-20.48,9.185-20.48,20.48v40.96c0,11.295,9.185,20.48,20.48,20.48c11.295,0,20.48-9.185,20.48-20.48
			V20.48C136.533,9.185,127.348,0,116.053,0z M122.88,61.44c0,3.765-3.062,6.827-6.827,6.827s-6.827-3.062-6.827-6.827V20.48
			c0-3.765,3.062-6.827,6.827-6.827s6.827,3.062,6.827,6.827V61.44z"/>
	</g>
</g>
<g>
	<g>
		<path d="M266.24,0c-11.295,0-20.48,9.185-20.48,20.48v40.96c0,11.295,9.185,20.48,20.48,20.48c11.295,0,20.48-9.185,20.48-20.48
			V20.48C286.72,9.185,277.535,0,266.24,0z M273.067,61.44c0,3.765-3.062,6.827-6.827,6.827s-6.827-3.062-6.827-6.827V20.48
			c0-3.765,3.062-6.827,6.827-6.827s6.827,3.062,6.827,6.827V61.44z"/>
	</g>
</g>
<g>
	<g>
		<path d="M286.461,181.057c-0.874-5.4-3.792-10.138-8.236-13.346c-9.165-6.601-21.982-4.526-28.583,4.618l-76.817,106.366
			l-31.208-22.289c-4.448-3.185-9.865-4.441-15.278-3.543c-5.393,0.901-10.114,3.847-13.298,8.298
			c-3.178,4.451-4.434,9.875-3.536,15.271c0.901,5.396,3.847,10.117,8.301,13.298l47.787,34.133
			c3.492,2.495,7.602,3.816,11.889,3.816c6.571,0,12.78-3.174,16.613-8.492l88.747-122.877
			C286.048,191.877,287.331,186.46,286.461,181.057z M271.773,188.317L183.023,311.2c-2.123,2.946-6.506,3.69-9.499,1.556
			l-47.787-34.133c-1.485-1.062-2.464-2.635-2.765-4.434s0.116-3.608,1.178-5.089c1.065-1.488,2.638-2.471,4.437-2.772
			c0.379-0.061,0.761-0.092,1.137-0.092c1.41,0,2.778,0.437,3.953,1.273l36.738,26.242c3.051,2.181,7.301,1.485,9.499-1.56
			l80.794-111.869c2.205-3.055,6.479-3.734,9.53-1.539c1.481,1.072,2.454,2.652,2.744,4.451
			C273.268,185.033,272.841,186.836,271.773,188.317z"/>
	</g>
</g>
<g>
</g>
<g>
</g>
<g>
</g>
<g>
</g>
<g>
</g>
<g>
</g>
<g>
</g>
<g>
</g>
<g>
</g>
<g>
</g>
<g>
</g>
<g>
</g>
<g>
</g>
<g>
</g>
<g>
</g>
</svg>
