<svg height="512pt" viewBox="0 0 512 512.04535" width="512pt" xmlns="http://www.w3.org/2000/svg"><path d="m486.421875 204.84375h-68.265625v-34.132812c4.710938 0 8.53125-3.820313 8.53125-8.53125v-110.933594c9.425781 0 17.070312 7.640625 17.070312 17.066406v110.933594c0 4.710937 3.820313 8.53125 8.53125 8.53125 4.714844 0 8.535157-3.820313 8.535157-8.53125v-110.933594c0-18.851562-15.285157-34.132812-34.136719-34.132812h-.851562c-4.363282-21.484376-24.292969-36.164063-46.101563-33.960938s-38.402344 20.574219-38.378906 42.492188v119.46875c0 4.710937 3.820312 8.53125 8.535156 8.53125v34.132812h-324.269531c-14.136719 0-25.5976565 11.464844-25.5976565 25.601562v256c0 14.136719 11.4609375 25.601563 25.5976565 25.601563h460.800781c14.140625 0 25.601563-11.464844 25.601563-25.601563v-256c0-14.136718-11.460938-25.601562-25.601563-25.601562zm0 17.066406c4.714844 0 8.535156 3.824219 8.535156 8.535156v17.066407h-76.800781v-25.601563zm-136.53125 136.535156h-34.132813c-4.714843 0-8.535156-3.820312-8.535156-8.535156v-34.132812c0-4.710938 3.820313-8.53125 8.535156-8.53125h34.132813zm68.265625-51.199218h25.601562c4.710938 0 8.53125 3.820312 8.53125 8.53125v34.132812c0 4.714844-3.820312 8.535156-8.53125 8.535156h-25.601562zm-59.734375-264.535156c0-14.136719 11.460937-25.597657 25.601563-25.597657 14.136718 0 25.597656 11.460938 25.597656 25.597657v110.933593h-51.199219zm42.667969 128v204.800781h-34.132813v-204.800781zm-3.78125 221.867187-13.285156 35.429687-13.289063-35.429687zm-371.6875-170.667969h324.269531v25.601563h-332.800781v-17.066407c0-4.710937 3.820312-8.535156 8.53125-8.535156zm460.800781 273.070313h-460.800781c-4.710938 0-8.53125-3.824219-8.53125-8.535157v-221.867187h332.800781v25.601563h-34.132813c-14.140624 0-25.601562 11.460937-25.601562 25.597656v34.132812c0 14.140625 11.460938 25.601563 25.601562 25.601563h34.132813v8.535156c0 .101563.050781.1875.058594.289063.011719.921874.171875 1.835937.476562 2.703124l21.285157 56.738282h-64.488282c-4.710937 0-8.535156 3.820312-8.535156 8.535156 0 4.710938 3.824219 8.53125 8.535156 8.53125h153.601563c4.710937 0 8.53125-3.820312 8.53125-8.53125 0-4.714844-3.820313-8.535156-8.53125-8.535156h-64.488281l21.28125-56.738282c.308593-.867187.46875-1.78125.480468-2.703124 0-.101563.058594-.1875.058594-.289063v-8.535156h25.601562c14.136719 0 25.597657-11.460938 25.597657-25.601563v-34.132812c0-14.136719-11.460938-25.597656-25.597657-25.597656h-25.601562v-25.601563h76.800781v221.867187c0 4.710938-3.820312 8.535157-8.535156 8.535157zm0 0"/><path d="m57.808594 321.574219c11.609375-7.367188 26.425781-7.367188 38.035156 0 3.8125 2.542969 6.238281 6.699219 6.578125 11.269531 0 4.714844 3.820313 8.535156 8.535156 8.535156 4.710938 0 8.53125-3.820312 8.53125-8.535156-.265625-9.960938-5.242187-19.207031-13.40625-24.925781-6.132812-4.390625-13.25-7.214844-20.726562-8.226563v-9.511718c0-4.714844-3.820313-8.535157-8.53125-8.535157-4.714844 0-8.535157 3.820313-8.535157 8.535157v9.511718c-7.472656 1.011719-14.585937 3.835938-20.71875 8.226563-8.375 5.53125-13.414062 14.894531-13.414062 24.925781 0 10.035156 5.039062 19.398438 13.414062 24.925781 8.511719 6.128907 18.765626 9.355469 29.253907 9.210938 6.789062-.121094 13.445312 1.90625 19.019531 5.792969 4.066406 2.296874 6.582031 6.601562 6.582031 11.273437 0 4.667969-2.515625 8.976563-6.582031 11.269531-11.609375 7.367188-26.425781 7.367188-38.035156 0-3.8125-2.539062-6.242188-6.699218-6.585938-11.269531 0-4.714844-3.820312-8.535156-8.535156-8.535156-4.710938 0-8.53125 3.820312-8.53125 8.535156.269531 9.960937 5.242188 19.207031 13.40625 24.925781 6.121094 4.472656 13.230469 7.398438 20.726562 8.53125v9.207032c0 4.714843 3.820313 8.535156 8.535157 8.535156 4.710937 0 8.53125-3.820313 8.53125-8.535156v-9.242188c7.496093-1.128906 14.601562-4.054688 20.71875-8.53125 8.375-5.527344 13.414062-14.890625 13.414062-24.925781 0-10.035157-5.039062-19.398438-13.414062-24.925781-8.515625-6.113282-18.769531-9.332032-29.25-9.175782-6.792969.121094-13.449219-1.90625-19.023438-5.792968-4.066406-2.296876-6.578125-6.601563-6.578125-11.273438 0-4.667969 2.511719-8.976562 6.578125-11.269531zm0 0"/><path d="m264.554688 358.445312h-119.464844c-4.714844 0-8.535156 3.820313-8.535156 8.535157 0 4.710937 3.820312 8.53125 8.535156 8.53125h119.464844c4.714843 0 8.535156-3.820313 8.535156-8.53125 0-4.714844-3.820313-8.535157-8.535156-8.535157zm0 0"/><path d="m264.554688 401.113281h-119.464844c-4.714844 0-8.535156 3.820313-8.535156 8.53125 0 4.714844 3.820312 8.535157 8.535156 8.535157h119.464844c4.714843 0 8.535156-3.820313 8.535156-8.535157 0-4.710937-3.820313-8.53125-8.535156-8.53125zm0 0"/><path d="m264.554688 443.777344h-119.464844c-4.714844 0-8.535156 3.820312-8.535156 8.535156 0 4.710938 3.820312 8.53125 8.535156 8.53125h119.464844c4.714843 0 8.535156-3.820312 8.535156-8.53125 0-4.714844-3.820313-8.535156-8.535156-8.535156zm0 0"/></svg>