<?xml version="1.0" encoding="utf-8"?>
<!-- Generator: Adobe Illustrator 21.1.0, SVG Export Plug-In . SVG Version: 6.00 Build 0)  -->
<svg version="1.1" id="Capa_1" xmlns="http://www.w3.org/2000/svg" xmlns:xlink="http://www.w3.org/1999/xlink" x="0px" y="0px"
	 viewBox="0 0 512 512" style="enable-background:new 0 0 512 512;" xml:space="preserve">
<g>
	<g id="_x35_1_80_">
		<g>
			<path d="M151,161.7c72.7,0,145.5,0,218.2,0c18.3,0,18.3-28.3,0-28.3c-72.7,0-145.5,0-218.2,0C132.8,133.3,132.8,161.7,151,161.7z
				"/>
			<path d="M369.3,210.4c-72.7,0-145.5,0-218.2,0c-18.3,0-18.3,28.3,0,28.3c72.7,0,145.5,0,218.2,0
				C387.5,238.7,387.5,210.4,369.3,210.4z"/>
			<path d="M369.3,282.5c-72.7,0-145.5,0-218.2,0c-18.3,0-18.3,28.3,0,28.3c72.7,0,145.5,0,218.2,0
				C387.5,310.9,387.5,282.5,369.3,282.5z"/>
			<path d="M369.3,359.6c-72.7,0-145.5,0-218.2,0c-18.3,0-18.3,28.3,0,28.3c72.7,0,145.5,0,218.2,0
				C387.5,387.9,387.5,359.6,369.3,359.6z"/>
			<path d="M378.9,0H58.7v510.6H452V70.8L378.9,0z M418,476.6H92.7V34h268.7v53.9H418C418,87.9,418,476.6,418,476.6z"/>
		</g>
	</g>
</g>
</svg>
