<svg id="Capa_1" data-name="Capa 1" xmlns="http://www.w3.org/2000/svg" viewBox="0 0 434.71 512"><title>claims</title><path d="M454.25,54.59h-101V18.82A18.88,18.88,0,0,0,334.41,0H177.13a18.88,18.88,0,0,0-18.82,18.82v99a18.88,18.88,0,0,0,18.82,18.82H293.42a18.82,18.82,0,0,0,0-37.65H196V37.65H315.69V73.41a18.88,18.88,0,0,0,18.82,18.82h101V474.35H76V92.24h28.76a18.82,18.82,0,1,0,0-37.65H57.18A18.88,18.88,0,0,0,38.36,73.41V493.18A18.88,18.88,0,0,0,57.18,512H454.25a18.88,18.88,0,0,0,18.82-18.82V73.41a18.87,18.87,0,0,0-18.82-18.82Zm0,0" transform="translate(-38.36)"/><path d="M342.47,226.93a18.84,18.84,0,0,0-26.67-.11l-87.74,87L196,281.52a18.85,18.85,0,1,0-26.77,26.56l45.39,45.7a18.93,18.93,0,0,0,26.66.1L342.36,253.59a18.84,18.84,0,0,0,.11-26.66Zm0,0" transform="translate(-38.36)"/></svg>