<?xml version="1.0" encoding="iso-8859-1"?>
<!-- Generator: Adobe Illustrator 19.0.0, SVG Export Plug-In . SVG Version: 6.00 Build 0)  -->
<svg version="1.1" id="Capa_1" xmlns="http://www.w3.org/2000/svg" xmlns:xlink="http://www.w3.org/1999/xlink" x="0px" y="0px"
	 viewBox="0 0 480.025 480.025" style="enable-background:new 0 0 480.025 480.025;" xml:space="preserve">
<g>
	<g>
		<path d="M386.388,112.373c-9.016-2.809-10.375-3.902-10.375-8.348c0-4.418,3.582-8,8-8s8,3.582,8,8h16
			c-0.031-10.137-6.438-19.158-16-22.526v-9.474h-16v9.474c-9.561,3.368-15.969,12.389-16,22.526
			c0,16.887,13.531,21.102,21.609,23.621c9.031,2.816,10.391,3.914,10.391,8.379c-0.004,4.416-3.584,7.996-8,8
			c-4.416-0.004-7.996-3.584-8-8h-16c0.031,10.137,6.439,19.158,16,22.525v9.475h16v-9.474c9.562-3.368,15.969-12.389,16-22.526
			C408.013,119.115,394.474,114.896,386.388,112.373z"/>
	</g>
</g>
<g>
	<g>
		<path d="M98.388,112.373c-9.016-2.809-10.375-3.902-10.375-8.348c0-4.418,3.582-8,8-8s8,3.582,8,8h16
			c-0.031-10.137-6.438-19.158-16-22.526v-9.474h-16v9.474c-9.561,3.368-15.969,12.389-16,22.526
			c0,16.887,13.531,21.102,21.609,23.621c9.031,2.816,10.391,3.914,10.391,8.379c-0.004,4.416-3.584,7.996-8,8
			c-4.416-0.004-7.996-3.584-8-8h-16c0.031,10.137,6.439,19.158,16,22.525v9.475h16v-9.474c9.561-3.368,15.969-12.389,16-22.526
			C120.013,119.115,106.473,114.896,98.388,112.373z"/>
	</g>
</g>
<g>
	<g>
		<path d="M429.804,185.525c36.231-25.188,45.183-74.978,19.995-111.209c-25.188-36.231-74.978-45.183-111.209-19.995
			c-2.084,1.449-4.099,2.997-6.036,4.638c-20.425-48.877-76.606-71.942-125.483-51.517c-25.204,10.532-44.721,31.311-53.656,57.124
			c-14.969-15.692-35.716-24.562-57.402-24.541c-44.147-0.036-79.964,35.723-80,79.87c-0.021,26.156,12.755,50.668,34.209,65.63
			c-28.714,5.828-50.209,28.474-50.209,55.5v231c-0.001,4.417,3.579,7.999,7.996,8c0.001,0,0.003,0,0.004,0h464
			c4.417,0.001,7.999-3.579,8-7.996c0-0.001,0-0.003,0-0.004v-231C480.013,213.998,458.517,191.352,429.804,185.525z
			 M340.013,96.025c-0.008-6.771-0.734-13.523-2.165-20.142c24.351-25.659,64.892-26.719,90.551-2.368
			c25.659,24.351,26.719,64.892,2.368,90.551c-24.351,25.659-64.892,26.719-90.551,2.368c-6.097-5.787-10.996-12.717-14.417-20.395
			C335.082,131.008,340.003,113.692,340.013,96.025z M338.434,185.606c-6.734,1.339-13.231,3.676-19.276,6.933
			c-8.156-6.147-17.392-10.71-27.23-13.451c8.631-5.008,16.434-11.325,23.129-18.725
			C320.938,170.364,328.913,178.975,338.434,185.606z M244.013,16.025c44.183,0,80,35.817,80,80s-35.817,80-80,80s-80-35.817-80-80
			C164.063,51.863,199.851,16.076,244.013,16.025z M193.37,177.429c-12.08,2.26-23.471,7.288-33.281,14.691
			c-5.769-3.008-11.933-5.188-18.31-6.475c11.32-7.907,20.385-18.627,26.301-31.104C175.086,163.61,183.65,171.361,193.37,177.429z
			 M32.013,120.025c-0.083-35.264,28.437-63.917,63.701-64c21.293-0.05,41.209,10.517,53.105,28.177
			c-2.412,18.191,0.61,36.688,8.685,53.166c-9.542,33.996-44.837,53.821-78.833,44.279
			C51.056,173.896,31.983,148.706,32.013,120.025z M128.013,464.025h-112v-223c0-22.609,21.859-41,48.734-41h62.531
			c6.913,0.016,13.763,1.323,20.196,3.855c-12.552,14.473-19.462,32.987-19.461,52.145V464.025z M336.013,464.025h-192v-208
			c0.04-35.329,28.671-63.96,64-64h62c36.433,0.043,65.957,29.567,66,66V464.025z M464.013,464.025h-112v-206
			c-0.003-19.81-7.214-38.942-20.288-53.825c6.668-2.748,13.81-4.167,21.022-4.175h62.531c26.875,0,48.734,18.391,48.734,41V464.025
			z"/>
	</g>
</g>
<g>
	<g>
		<path d="M279.01,112.024c-3.629-14.147-16.393-24.029-30.998-23.999c-8.837,0-16-7.163-16-16s7.163-16,16-16s16,7.163,16,16h16
			c-0.043-14.551-9.908-27.237-24-30.864v-9.136h-16v9.136c-17.083,4.382-27.379,21.782-22.998,38.865
			c3.629,14.147,16.393,24.029,30.998,23.999c8.837,0,16,7.163,16,16s-7.163,16-16,16c-8.832-0.01-15.99-7.168-16-16h-16
			c0.043,14.551,9.908,27.237,24,30.864v9.136h16v-9.136C273.095,146.507,283.392,129.107,279.01,112.024z"/>
	</g>
</g>
<g>
</g>
<g>
</g>
<g>
</g>
<g>
</g>
<g>
</g>
<g>
</g>
<g>
</g>
<g>
</g>
<g>
</g>
<g>
</g>
<g>
</g>
<g>
</g>
<g>
</g>
<g>
</g>
<g>
</g>
</svg>
