<?xml version="1.0" encoding="iso-8859-1"?>
<!-- Generator: Adobe Illustrator 19.0.0, SVG Export Plug-In . SVG Version: 6.00 Build 0)  -->
<svg version="1.1" id="Layer_1" xmlns="http://www.w3.org/2000/svg" xmlns:xlink="http://www.w3.org/1999/xlink" x="0px" y="0px"
	 viewBox="0 0 297 297" style="enable-background:new 0 0 297 297;" xml:space="preserve">
<g>
	<g>
		<g>
			<path d="M68.022,0H18.895C8.476,0,0,8.476,0,18.895v49.126C0,78.44,8.476,86.916,18.895,86.916h49.126
				c10.419,0,18.895-8.476,18.895-18.895V18.895C86.917,8.476,78.441,0,68.022,0z M67.15,67.15H19.767V19.767H67.15V67.15z"/>
			<path d="M173.063,0h-49.126c-10.419,0-18.895,8.476-18.895,18.895v49.126c0,10.419,8.476,18.895,18.895,18.895h49.126
				c10.419,0,18.895-8.476,18.895-18.895V18.895C191.959,8.476,183.482,0,173.063,0z M172.192,67.15h-47.383V19.767h47.383V67.15z"
				/>
			<path d="M68.022,105.041H18.895C8.476,105.041,0,113.518,0,123.937v49.126c0,10.419,8.476,18.895,18.895,18.895h49.126
				c10.419,0,18.895-8.476,18.895-18.895v-49.126C86.917,113.518,78.441,105.041,68.022,105.041z M67.15,172.192H19.767v-47.383
				H67.15V172.192z"/>
			<path d="M173.063,105.041h-49.126c-10.419,0-18.895,8.476-18.895,18.895v49.126c0,10.419,8.476,18.895,18.895,18.895h49.126
				c10.419,0,18.895-8.476,18.895-18.895v-49.126C191.959,113.518,183.482,105.041,173.063,105.041z M172.192,172.192h-47.383
				v-47.383h47.383V172.192z"/>
			<path d="M278.105,0h-49.126c-10.419,0-18.895,8.476-18.895,18.895v49.126c0,10.419,8.476,18.895,18.895,18.895h49.126
				c10.419,0,18.895-8.476,18.895-18.895V18.895C297,8.476,288.524,0,278.105,0z M277.233,67.15H229.85V19.767h47.383V67.15z"/>
			<path d="M278.105,105.041h-49.126c-10.419,0-18.895,8.476-18.895,18.895v49.126c0,10.419,8.476,18.895,18.895,18.895h49.126
				c10.419,0,18.895-8.476,18.895-18.895v-49.126C297,113.518,288.524,105.041,278.105,105.041z M277.233,172.192H229.85v-47.383
				h47.383V172.192z"/>
			<path d="M68.022,210.083H18.895C8.476,210.083,0,218.559,0,228.978v49.126C0,288.524,8.476,297,18.895,297h49.126
				c10.419,0,18.895-8.476,18.895-18.895v-49.126C86.917,218.559,78.441,210.083,68.022,210.083z M67.15,277.233H19.767V229.85
				H67.15V277.233z"/>
			<path d="M173.063,210.083h-49.126c-10.419,0-18.895,8.476-18.895,18.895v49.126c0,10.419,8.476,18.895,18.895,18.895h49.126
				c10.419,0,18.895-8.476,18.895-18.895v-49.126C191.959,218.559,183.482,210.083,173.063,210.083z M172.192,277.233h-47.383
				V229.85h47.383V277.233z"/>
			<path d="M278.105,210.083h-49.126c-10.419,0-18.895,8.476-18.895,18.895v49.126c0,10.419,8.476,18.895,18.895,18.895h49.126
				c10.419,0,18.895-8.476,18.895-18.895v-49.126C297,218.559,288.524,210.083,278.105,210.083z M277.233,277.233H229.85V229.85
				h47.383V277.233z"/>
		</g>
	</g>
</g>
<g>
</g>
<g>
</g>
<g>
</g>
<g>
</g>
<g>
</g>
<g>
</g>
<g>
</g>
<g>
</g>
<g>
</g>
<g>
</g>
<g>
</g>
<g>
</g>
<g>
</g>
<g>
</g>
<g>
</g>
</svg>
