<?xml version="1.0" encoding="utf-8"?>
<!-- Generator: Adobe Illustrator 21.1.0, SVG Export Plug-In . SVG Version: 6.00 Build 0)  -->
<svg version="1.1" id="Capa_1" xmlns="http://www.w3.org/2000/svg" xmlns:xlink="http://www.w3.org/1999/xlink" x="0px" y="0px"
	 viewBox="0 0 512 512" style="enable-background:new 0 0 512 512;" xml:space="preserve">
<g>
	<g>
		<path d="M387.1,167.5c-5.9-5.9-15.4-5.9-21.2,0L220.7,312.7l-74.6-74.6c-5.9-5.9-15.4-5.9-21.2,0c-5.9,5.9-5.9,15.4,0,21.2
			l85.2,85.2c2.9,2.9,6.8,4.4,10.6,4.4c3.8,0,7.7-1.5,10.6-4.4l155.8-155.8C393,182.9,393,173.4,387.1,167.5z"/>
	</g>
</g>
<g>
	<g>
		<path d="M437,75C388.7,26.6,324.4,0,256,0C187.6,0,123.3,26.6,75,75C26.6,123.3,0,187.6,0,256c0,68.4,26.6,132.7,75,181
			c48.4,48.4,112.6,75,181,75s132.7-26.6,181-75s75-112.6,75-181C512,187.6,485.4,123.3,437,75z M256,482C131.4,482,30,380.6,30,256
			S131.4,30,256,30s226,101.4,226,226S380.6,482,256,482z"/>
	</g>
</g>
</svg>
