<?xml version="1.0" encoding="iso-8859-1"?>
<!-- Generator: Adobe Illustrator 19.0.0, SVG Export Plug-In . SVG Version: 6.00 Build 0)  -->
<svg version="1.1" id="Capa_1" xmlns="http://www.w3.org/2000/svg" xmlns:xlink="http://www.w3.org/1999/xlink" x="0px" y="0px"
	 viewBox="0 0 512 512" style="enable-background:new 0 0 512 512;" xml:space="preserve">
<g>
	<g>
		<path d="M512,256c0-51.552-14.973-100.664-43.407-142.856l27.615-27.615l-69.736-69.736l-27.615,27.615
			C356.662,14.974,307.551,0,255.998,0c-51.551,0-100.661,14.974-142.855,43.407L85.528,15.792L15.792,85.528l27.615,27.615
			C14.975,155.336,0.001,204.446,0,255.996c-0.001,51.553,14.973,100.666,43.407,142.86l-27.615,27.615l69.736,69.736l27.615-27.615
			C155.336,497.026,204.448,512,256,512c51.551,0,100.663-14.974,142.855-43.407l27.615,27.615l69.736-69.736l-27.615-27.615
			C497.025,356.664,511.999,307.552,512,256z M481.999,256c-0.001,43.533-12.079,85.083-35.071,121.191l-59.09-59.09
			c9.047-19.174,13.819-40.271,13.819-62.102s-4.771-42.928-13.819-62.102l59.091-59.091
			C469.921,170.917,481.999,212.467,481.999,256z M426.471,58.219l27.309,27.309l-82.03,82.03c-3.9-5.082-8.15-9.947-12.757-14.553
			c-4.605-4.605-9.47-8.856-14.553-12.757L426.471,58.219z M371.655,256.001c0,30.892-12.03,59.937-33.875,81.781
			S286.893,371.656,256,371.656s-59.937-12.03-81.781-33.875c-21.844-21.845-33.875-50.888-33.875-81.781
			s12.03-59.937,33.875-81.781s50.888-33.875,81.781-33.875s59.937,12.03,81.781,33.875S371.655,225.109,371.655,256.001z
			 M256,30.002c43.533,0,85.084,12.078,121.192,35.07l-59.091,59.091c-19.174-9.047-40.271-13.819-62.102-13.819
			c-21.831,0-42.928,4.772-62.102,13.819l-59.091-59.091C170.917,42.079,212.467,30.002,256,30.002z M85.528,58.22l82.03,82.03
			c-5.082,3.9-9.947,8.15-14.553,12.757c-4.605,4.605-8.856,9.47-12.757,14.553L58.22,85.528L85.528,58.22z M30.001,255.996
			c0.001-43.532,12.079-85.081,35.07-121.187l59.091,59.091c-9.047,19.174-13.819,40.271-13.819,62.102s4.772,42.928,13.82,62.102
			l-59.091,59.09C42.079,341.083,30.001,299.532,30.001,255.996z M85.528,453.781L58.22,426.472l82.03-82.029
			c3.899,5.082,8.15,9.946,12.756,14.553c4.605,4.605,9.47,8.856,14.553,12.757L85.528,453.781z M256,481.999
			c-43.534,0-85.084-12.078-121.192-35.071l59.091-59.091c19.174,9.047,40.271,13.819,62.102,13.819s42.928-4.772,62.102-13.819
			l59.091,59.091C341.083,469.922,299.533,481.999,256,481.999z M426.471,453.781l-82.03-82.03c5.082-3.9,9.947-8.15,14.553-12.757
			c4.605-4.605,8.856-9.47,12.757-14.553l82.03,82.03L426.471,453.781z"/>
	</g>
</g>
<g>
</g>
<g>
</g>
<g>
</g>
<g>
</g>
<g>
</g>
<g>
</g>
<g>
</g>
<g>
</g>
<g>
</g>
<g>
</g>
<g>
</g>
<g>
</g>
<g>
</g>
<g>
</g>
<g>
</g>
</svg>
