<?xml version="1.0" encoding="iso-8859-1"?>
<!-- Generator: Adobe Illustrator 18.1.1, SVG Export Plug-In . SVG Version: 6.00 Build 0)  -->
<svg version="1.1" id="Capa_1" xmlns="http://www.w3.org/2000/svg" xmlns:xlink="http://www.w3.org/1999/xlink" x="0px" y="0px"
	 viewBox="0 0 58.658 58.658" style="enable-background:new 0 0 58.658 58.658;" xml:space="preserve">
<g>
	<path style="fill:#010002;" d="M54.293,19.728h-5.419V9.381c0-2.407-1.958-4.364-4.365-4.364H4.365C1.958,5.017,0,6.975,0,9.381
		v25.184c0,2.407,1.958,4.364,4.365,4.364h5.419v10.347c0,2.407,1.958,4.364,4.365,4.364h40.144c2.407,0,4.365-1.958,4.365-4.364
		V24.092C58.658,21.686,56.7,19.728,54.293,19.728z M9.784,24.092v10.349H4.489V9.505h39.897v10.223H14.149
		C11.742,19.728,9.784,21.686,9.784,24.092z M54.169,49.152H14.272V38.929v-4.488V24.216h30.113h4.488h5.295v24.936H54.169z"/>
</g>
<g>
</g>
<g>
</g>
<g>
</g>
<g>
</g>
<g>
</g>
<g>
</g>
<g>
</g>
<g>
</g>
<g>
</g>
<g>
</g>
<g>
</g>
<g>
</g>
<g>
</g>
<g>
</g>
<g>
</g>
</svg>
