<?xml version="1.0" encoding="utf-8"?>
<!-- Svg Vector Icons : http://www.onlinewebfonts.com/icon -->
<!DOCTYPE svg PUBLIC "-//W3C//DTD SVG 1.1//EN" "http://www.w3.org/Graphics/SVG/1.1/DTD/svg11.dtd">
<svg version="1.1" xmlns="http://www.w3.org/2000/svg" xmlns:xlink="http://www.w3.org/1999/xlink" x="0px" y="0px" viewBox="0 0 1000 1000" enable-background="new 0 0 1000 1000" xml:space="preserve">
<metadata> Svg Vector Icons : http://www.onlinewebfonts.com/icon </metadata>
<g><path d="M899.4,792.4L899.4,792.4c41.2-57.6,74.1-131.8,82.4-205.9v-8.2c0-24.7,8.2-49.4,8.2-74.1c0-16.5,0-41.2,0-57.6C965.3,224.1,792.4,51.2,578.2,18.2c-24.7,0-49.4-8.2-74.1-8.2c-24.7,0-49.4,0-74.1,8.2h-8.2c-74.1,16.5-140,41.2-205.9,82.4l0,0c-24.7,16.5-41.2,32.9-65.9,49.4l0,0l0,0l0,0c-16.5,16.5-32.9,41.2-49.4,65.9l0,0c-41.2,57.6-74.1,131.8-82.4,205.9v8.2c0,24.7-8.2,49.4-8.2,74.1c0,24.7,0,49.4,8.2,74.1C51.2,792.4,224.1,965.3,446.5,990c16.5,0,41.2,0,57.6,0c24.7,0,49.4,0,74.1-8.2h8.2c74.1-16.5,140-41.2,205.9-82.4l0,0C825.3,874.7,866.5,833.5,899.4,792.4z M495.9,833.5c-181.2,0-329.4-148.2-329.4-329.4c0-57.6,16.5-115.3,49.4-164.7l452.9,452.9C611.2,817.1,553.5,833.5,495.9,833.5z M775.9,668.8L322.9,215.9c49.4-32.9,107.1-49.4,164.7-49.4c181.2,0,329.4,148.2,329.4,329.4C825.3,561.8,808.8,619.4,775.9,668.8z"/></g>
</svg>