<?xml version="1.0" encoding="utf-8"?>
<!-- Generator: Adobe Illustrator 21.1.0, SVG Export Plug-In . SVG Version: 6.00 Build 0)  -->
<svg version="1.1" id="Capa_1" xmlns="http://www.w3.org/2000/svg" xmlns:xlink="http://www.w3.org/1999/xlink" x="0px" y="0px"
	 viewBox="0 0 512 512" style="enable-background:new 0 0 512 512;" xml:space="preserve">
<style type="text/css">
	.st0{fill:#FFFFFF;}
	.st1{fill:#8AAE47;}
</style>
<g>
	<g>
		<path class="st0" d="M437,75C388.7,26.6,324.4,0,256,0C187.6,0,123.3,26.6,75,75C26.6,123.3,0,187.6,0,256
			c0,68.4,26.6,132.7,75,181c48.4,48.4,112.6,75,181,75s132.7-26.6,181-75s75-112.6,75-181C512,187.6,485.4,123.3,437,75z"/>
	</g>
</g>
<g>
	<g>
		<path class="st1" d="M369.1,292.9c-17.4-17.4-38.2-30.3-60.8-38.1c24.2-16.7,40.2-44.6,40.2-76.2c0-51-41.5-92.5-92.5-92.5
			s-92.5,41.5-92.5,92.5c0,31.6,15.9,59.5,40.2,76.2c-22.6,7.8-43.4,20.7-60.8,38.1C112.6,323.1,96,363.3,96,406h25
			c0-74.4,60.6-135,135-135s135,60.6,135,135h25C416,363.3,399.4,323.1,369.1,292.9z M256,246c-37.2,0-67.5-30.3-67.5-67.5
			S218.8,111,256,111s67.5,30.3,67.5,67.5S293.2,246,256,246z"/>
	</g>
</g>
</svg>
