<?xml version="1.0" encoding="iso-8859-1"?>
<!-- Generator: Adobe Illustrator 19.0.0, SVG Export Plug-In . SVG Version: 6.00 Build 0)  -->
<svg version="1.1" id="Layer_1" xmlns="http://www.w3.org/2000/svg" xmlns:xlink="http://www.w3.org/1999/xlink" x="0px" y="0px"
	 viewBox="0 0 512.003 512.003" style="enable-background:new 0 0 512.003 512.003;" xml:space="preserve">
<g>
	<g>
		<g>
			<path d="M42.669,230.4c-4.71,0-8.533,3.814-8.533,8.533v25.6c0,4.719,3.823,8.533,8.533,8.533c4.71,0,8.533-3.814,8.533-8.533
				v-25.6C51.203,234.214,47.38,230.4,42.669,230.4z"/>
			<path d="M173.09,436.941l-23.159-10.897c-4.258-1.988-9.353-0.179-11.358,4.087s-0.171,9.353,4.087,11.358l23.159,10.906
				c1.178,0.546,2.415,0.802,3.635,0.802c3.2,0,6.272-1.809,7.723-4.898C179.183,444.032,177.357,438.947,173.09,436.941z"/>
			<path d="M477.869,213.333c0-4.719-3.814-8.533-8.533-8.533s-8.533,3.814-8.533,8.533v25.6c0,4.719,3.814,8.533,8.533,8.533
				s8.533-3.814,8.533-8.533V213.333z"/>
			<path d="M469.336,264.533c-4.719,0-8.533,3.814-8.533,8.533v25.6c0,4.719,3.814,8.533,8.533,8.533s8.533-3.814,8.533-8.533v-25.6
				C477.869,268.347,474.055,264.533,469.336,264.533z"/>
			<path d="M477.869,342.2v-17.937c0-4.71-3.814-8.533-8.533-8.533s-8.533,3.823-8.533,8.533V342.2
				c-7.552,1.536-14.285,5.188-19.814,10.146c-0.358-0.341-0.623-0.76-1.05-1.05l-51.2-34.133
				c-3.925-2.611-9.225-1.553-11.836,2.372c-2.611,3.925-1.553,9.216,2.364,11.827l51.2,34.133c0.154,0.102,0.316,0.137,0.478,0.23
				c-2.662,5.555-4.275,11.708-4.275,18.27c0,3.797,0.657,7.407,1.596,10.906l-27.58,12.971c-4.258,2.014-6.093,7.091-4.087,11.358
				c1.451,3.098,4.523,4.907,7.731,4.907c1.212,0,2.449-0.265,3.627-0.811l27.938-13.15c7.817,9.958,19.823,16.486,33.442,16.486
				c23.526,0,42.667-19.14,42.667-42.667C512.003,363.397,497.317,346.159,477.869,342.2z"/>
			<path d="M362.078,426.042l-23.159,10.897c-4.267,2.014-6.101,7.091-4.087,11.358c1.451,3.098,4.523,4.907,7.723,4.907
				c1.212,0,2.458-0.264,3.627-0.811l23.168-10.897c4.258-2.014,6.093-7.1,4.087-11.366
				C371.422,425.862,366.345,424.053,362.078,426.042z"/>
			<path d="M308.032,451.474l-11.443,5.385c-5.376-17.417-21.427-30.191-40.585-30.191s-35.217,12.774-40.593,30.191l-11.435-5.385
				c-4.258-1.988-9.344-0.179-11.358,4.087c-2.005,4.267-0.179,9.353,4.087,11.366l17.203,8.098
				c2.816,20.813,20.523,36.975,42.095,36.975s39.27-16.162,42.086-36.975l17.212-8.098c4.267-2.014,6.093-7.1,4.087-11.366
				C317.376,451.295,312.29,449.486,308.032,451.474z"/>
			<path d="M337.265,62.767l23.672,9.754c1.058,0.427,2.159,0.64,3.243,0.64c3.354,0,6.537-1.997,7.902-5.282
				c1.792-4.361-0.29-9.344-4.642-11.145l-23.671-9.754c-4.361-1.766-9.344,0.299-11.145,4.642
				C330.831,55.982,332.904,60.966,337.265,62.767z"/>
			<path d="M147.824,73.158c1.084,0,2.185-0.205,3.243-0.64l23.671-9.754c4.361-1.801,6.434-6.784,4.642-11.136
				c-1.792-4.361-6.793-6.417-11.136-4.642l-23.672,9.745c-4.361,1.801-6.434,6.784-4.642,11.145
				C141.287,71.169,144.47,73.158,147.824,73.158z"/>
			<path d="M203.057,50.416c1.084,0,2.185-0.205,3.243-0.64l7.441-3.072c2.082,21.615,20.122,38.63,42.266,38.63
				c22.135,0,40.183-17.015,42.257-38.63l7.441,3.072c1.058,0.435,2.159,0.64,3.243,0.64c3.354,0,6.537-1.988,7.893-5.282
				c1.792-4.361-0.282-9.344-4.634-11.145l-16.555-6.818c-6.221-15.863-21.598-27.17-39.646-27.17
				c-18.057,0-33.425,11.307-39.654,27.17l-16.546,6.818c-4.361,1.801-6.434,6.784-4.642,11.145
				C196.52,48.428,199.703,50.416,203.057,50.416z"/>
			<path d="M348.751,200.625c-0.128-0.213-0.29-0.41-0.427-0.614c-0.282-0.41-0.58-0.811-0.939-1.169
				c-0.205-0.205-0.435-0.393-0.666-0.58c-0.205-0.171-0.375-0.375-0.597-0.529c-0.179-0.128-0.384-0.179-0.572-0.29
				c-0.145-0.085-0.256-0.205-0.401-0.273l-85.333-42.667c-2.398-1.203-5.231-1.203-7.629,0l-85.333,42.667
				c-0.154,0.068-0.265,0.196-0.41,0.282c-0.179,0.102-0.384,0.162-0.563,0.282c-0.222,0.154-0.393,0.358-0.597,0.529
				c-0.23,0.188-0.461,0.375-0.666,0.58c-0.358,0.358-0.657,0.759-0.939,1.169c-0.137,0.205-0.299,0.401-0.427,0.614
				c-0.358,0.631-0.631,1.289-0.819,1.988c-0.009,0.034-0.026,0.068-0.034,0.094c-0.171,0.674-0.265,1.374-0.265,2.091v93.867
				c0,3.234,1.826,6.187,4.719,7.637l85.333,42.667c0.119,0.06,0.265,0.034,0.393,0.085c1.092,0.486,2.244,0.811,3.422,0.811
				s2.33-0.324,3.422-0.811c0.128-0.051,0.273-0.026,0.393-0.085l85.333-42.667c2.893-1.451,4.719-4.403,4.719-7.637v-93.867
				c0-0.717-0.094-1.417-0.265-2.091c-0.009-0.026-0.026-0.06-0.034-0.094C349.383,201.914,349.11,201.257,348.751,200.625z
				 M247.469,327.524l-68.267-34.133V217.41l68.267,27.307V327.524z M332.803,293.391l-68.267,34.133v-82.807l68.267-27.307V293.391
				z"/>
			<path d="M34.133,161.263v26.47c0,4.719,3.823,8.533,8.533,8.533c4.719,0,8.533-3.814,8.533-8.533v-26.47
				c7.561-1.527,14.285-5.188,19.823-10.155c0.358,0.35,0.614,0.777,1.05,1.058l51.2,34.133c1.451,0.964,3.098,1.434,4.719,1.434
				c2.765,0,5.461-1.331,7.108-3.797c2.611-3.925,1.553-9.216-2.364-11.836l-51.2-34.133c-0.154-0.102-0.333-0.111-0.486-0.196
				c2.662-5.572,4.284-11.725,4.284-18.304c0-6.519-1.579-12.621-4.207-18.15l30.49-12.561c4.361-1.801,6.434-6.784,4.642-11.136
				c-1.801-4.361-6.793-6.426-11.145-4.642L73.549,85.973c-1.016,0.427-1.877,1.041-2.628,1.766
				C63.377,81.015,53.547,76.8,42.667,76.8C19.14,76.8,0,95.94,0,119.466C0,140.066,14.686,157.312,34.133,161.263z"/>
			<path d="M384.011,187.733c1.621,0,3.268-0.469,4.727-1.434l51.2-34.133c0.427-0.282,0.691-0.708,1.05-1.05
				c5.53,4.958,12.262,8.619,19.814,10.146v26.47c0,4.719,3.814,8.533,8.533,8.533s8.533-3.814,8.533-8.533v-26.47
				c19.447-3.951,34.133-21.197,34.133-41.796c0-23.526-19.14-42.667-42.667-42.667c-10.871,0-20.71,4.216-28.254,10.94
				c-0.742-0.725-1.613-1.34-2.628-1.766l-31.556-12.996c-4.361-1.766-9.344,0.282-11.145,4.642
				c-1.792,4.352,0.282,9.335,4.642,11.136l30.481,12.561c-2.62,5.53-4.207,11.631-4.207,18.15c0,6.579,1.613,12.732,4.284,18.304
				c-0.154,0.085-0.333,0.094-0.486,0.196l-51.2,34.133c-3.917,2.62-4.975,7.91-2.364,11.836
				C378.55,186.402,381.255,187.733,384.011,187.733z"/>
			<path d="M123.269,317.167l-51.2,34.133c-0.427,0.282-0.691,0.708-1.05,1.058c-5.53-4.966-12.262-8.627-19.814-10.155v-43.537
				c0-4.719-3.823-8.533-8.533-8.533c-4.719,0-8.533,3.814-8.533,8.533v43.537C14.682,346.154,0.005,363.4,0.005,384
				c0,23.526,19.14,42.667,42.667,42.667c13.611,0,25.626-6.536,33.442-16.495l27.938,13.15c1.178,0.555,2.406,0.811,3.627,0.811
				c3.2,0,6.272-1.809,7.731-4.898c2.005-4.267,0.171-9.353-4.087-11.358l-27.571-12.979c0.93-3.499,1.587-7.108,1.587-10.897
				c0-6.571-1.613-12.715-4.275-18.278c0.154-0.085,0.324-0.119,0.469-0.222l51.2-34.133c3.925-2.62,4.983-7.91,2.372-11.836
				C132.485,315.605,127.186,314.547,123.269,317.167z"/>
		</g>
	</g>
</g>
<g>
</g>
<g>
</g>
<g>
</g>
<g>
</g>
<g>
</g>
<g>
</g>
<g>
</g>
<g>
</g>
<g>
</g>
<g>
</g>
<g>
</g>
<g>
</g>
<g>
</g>
<g>
</g>
<g>
</g>
</svg>
