<?xml version="1.0" encoding="utf-8"?>
<!-- Svg Vector Icons : http://www.onlinewebfonts.com/icon -->
<!DOCTYPE svg PUBLIC "-//W3C//DTD SVG 1.1//EN" "http://www.w3.org/Graphics/SVG/1.1/DTD/svg11.dtd">
<svg version="1.1" xmlns="http://www.w3.org/2000/svg" xmlns:xlink="http://www.w3.org/1999/xlink" x="0px" y="0px" viewBox="0 0 1000 1000" enable-background="new 0 0 1000 1000" xml:space="preserve">
<metadata> Svg Vector Icons : http://www.onlinewebfonts.com/icon </metadata>
<g><path d="M693.4,990C551,990,435.5,874.5,435.5,732.1c0-142.4,115.5-257.9,257.9-257.9c142.4,0,257.9,115.5,257.9,257.9C951.3,874.5,835.9,990,693.4,990z M693.4,525.8c-113.9,0-206.3,92.4-206.3,206.3c0,113.9,92.4,206.3,206.3,206.3s206.3-92.4,206.3-206.3C899.7,618.2,807.4,525.8,693.4,525.8z M667.6,732.1v-25.8V577.4h51.6v128.9h77.4v51.6H667.6V732.1L667.6,732.1z M203.4,706.3v-51.6h190.7c-4.3,16.7-7.4,33.9-8.8,51.6H203.4z M203.4,396.8h412.6v35.9c-15.9,4.1-31.4,9.2-46.1,15.6H203.4V396.8z M203.4,577.4v-51.6h259.8c-14.2,15.8-26.8,33.1-37.5,51.6H203.4z M719.2,113.2H590.3v51.6l-361.1,0v-51.6H100.3v722.1h301.7c6.4,18,14.3,35.3,23.8,51.6h-377V61.6h180.5V10h361.1v51.6h180.5v371.2c-16.7-4.3-33.9-7.4-51.6-8.8V113.2z M538.7,61.6H280.8v51.6h257.9V61.6z"/></g>
</svg>