<?xml version="1.0" encoding="utf-8"?>
<!-- Generator: Adobe Illustrator 21.1.0, SVG Export Plug-In . SVG Version: 6.00 Build 0)  -->
<svg version="1.1" id="Capa_1" xmlns="http://www.w3.org/2000/svg" xmlns:xlink="http://www.w3.org/1999/xlink" x="0px" y="0px"
	 viewBox="0 0 512 512" style="enable-background:new 0 0 512 512;" xml:space="preserve">
<g>
	<g>
		<path d="M266.6,357.9c-2.8-2.8-6.7-4.4-10.6-4.4s-7.8,1.6-10.6,4.4c-2.8,2.8-4.4,6.7-4.4,10.6c0,4,1.6,7.8,4.4,10.6
			c2.8,2.8,6.7,4.4,10.6,4.4c4,0,7.8-1.6,10.6-4.4c2.8-2.8,4.4-6.7,4.4-10.6C271,364.5,269.4,360.6,266.6,357.9z"/>
	</g>
</g>
<g>
	<g>
		<path d="M85.9,447.3C132.8,489.1,192.6,512,256,512c68.4,0,132.7-26.6,181-75c48.4-48.4,75-112.6,75-181s-26.6-132.7-75-181
			C388.7,26.6,324.4,0,256,0C187.6,0,123.3,26.6,75,75C26.6,123.3,0,187.6,0,256c0,63.4,22.9,123.2,64.7,170.1 M256,482
			C131.4,482,30,380.6,30,256C30,131.4,131.4,30,256,30s226,101.4,226,226C482,380.6,380.6,482,256,482z"/>
	</g>
</g>
<g>
	<g>
		<path d="M256,128.5c-8.3,0-15,6.7-15,15v158.5c0,8.3,6.7,15,15,15s15-6.7,15-15V143.5C271,135.2,264.3,128.5,256,128.5z"/>
	</g>
</g>
</svg>
