<svg id="Capa_1" data-name="Capa 1" 
    xmlns="http://www.w3.org/2000/svg" 
    xmlns:xlink="http://www.w3.org/1999/xlink" viewBox="0 0 1000 1000">
    <defs>
        <style>.cls-1{fill:none;}.cls-2{fill:#fff;}.cls-3{clip-path:url(#clip-path);}.cls-4{clip-path:url(#clip-path-2);}</style>
        <clipPath id="clip-path">
            <polyline class="cls-1" points="219.41 394.74 813.54 394.74 813.54 554.21 219.41 554.21 219.41 394.74"/>
        </clipPath>
        <clipPath id="clip-path-2">
            <polyline class="cls-1" points="219.41 84.63 813.54 84.63 813.54 244.1 219.41 244.1 219.41 84.63"/>
        </clipPath>
    </defs>
    <rect x="0.5" y="0.5" width="999" height="999"/>
    <path d="M999,1V999H1V1H999m1-1H0V1000H1000V0Z">
    </path>
    <path class="cls-2" d="M507.2,788.45c73.65,0,147.31.18,221-.14,17.69-.08,34.91,2.19,41.86,20.18,7.69,19.88,9,41.37-3,60.64C758.74,882.25,744.74,884,730.26,884q-155.34-.21-310.68-.07c-44.86,0-89.72.11-134.57,0-30.77-.11-43.28-12.71-43.7-43.36,0-2.22,0-4.43,0-6.65.21-33.12,12.16-45.35,44.94-45.39q77.34-.11,154.68,0H507.2">
        <animateTransform attributeName="transform"
            type="translate"
            from="0 0"
            to="0 10"
            begin="0s"
            dur="2s"
            repeatCount="indefinite"
        />
        <animate attributeName="fill-opacity"
            begin="0s" dur="1.4s"
            values="0.5;1;0.5"
            calcMode="linear"
            repeatCount="indefinite" 
        />
    </path>
    <g class="cls-3">
        <path d="M340.78,532.2h0m362,0,27.5,0h0l-27.5,0m-322.63,0-39.29,0,39.29,0m193,0h0m0,0h0M766.42,518.2c-8.23,12.27-21.8,14-35.86,14,14.06,0,27.63-1.76,35.86-14m.06-.09h0m.27-.41-.27.41.27-.41M241.28,485.22c0,1.17,0,2.35,0,3.53.42,30.65,12.93,43.25,43.7,43.36l8.17,0-8.17,0c-30.77-.11-43.28-12.71-43.7-43.36,0-1.18,0-2.36,0-3.53m528.19-29.83,0,0,0,0M379,436.66q-46.36,0-92.72,0,47.08-.06,94.17,0H379m349.43-.12h0m.22,0h0m.2,0h0m.22,0h0"/>
        <path d="M729,436.54h0c16.92,0,33.27,2.36,40.42,18.85l0,0c.18.42.36.86.53,1.3a81.47,81.47,0,0,1,5.9,29.23A58.12,58.12,0,0,1,767,517.36h0l-.22.34-.27.41h0l-.06.08c-8.23,12.27-21.8,14-35.86,14h-.3l-27.5,0q-64.77-.08-129.54-.06H419.58l-39.45,0-39.29,0h-.06q-23.8,0-47.6-.06l-8.17,0c-30.77-.11-43.28-12.71-43.7-43.36,0-1.18,0-2.36,0-3.53s0-2.08,0-3.12c.21-33.12,12.16-45.35,44.94-45.39h0q46.36-.06,92.72,0H507.2q59.31,0,118.61.05,51.18,0,102.35-.19H729m73.59-41.8h-.05L219.41,410.23l12.76,144,581.37-6.38L802.61,394.74"/>
        <path class="cls-2" d="M729,436.54h-.86q-51.17.22-102.35.19-59.29,0-118.61-.05H380.4q-47.08,0-94.17,0h0c-32.78,0-44.73,12.27-44.94,45.39,0,1,0,2.08,0,3.12s0,2.35,0,3.53c.42,30.65,12.93,43.25,43.7,43.36l8.17,0q23.81.06,47.6.06h.06l39.29,0,39.45,0H573.22q64.77,0,129.54.06l27.5,0h.3c14.06,0,27.63-1.76,35.86-14l.06-.08h0l.27-.41.22-.34h0A58.12,58.12,0,0,0,775.92,486a81.47,81.47,0,0,0-5.9-29.23c-.17-.44-.35-.88-.53-1.3l0,0c-7.15-16.49-23.5-18.85-40.42-18.85h0">
            <animateTransform attributeName="transform"
                type="translate"
                from="0 0"
                to="0 10"
                begin="0s"
                dur="2s"
                repeatCount="indefinite"
            />
            <animate attributeName="fill-opacity"
                begin="0s" dur="1.4s"
                values="0.5;1;0.5"
                calcMode="linear"
                repeatCount="indefinite" 
            />
        </path>
    </g>
    <g class="cls-4">
        <path d="M340.78,222.09h0m362,0,27.5,0h0l-27.5,0m-322.63,0-39.29,0,39.29,0m193,0h0m0,0h0m193.23-13.94c-8.23,12.27-21.8,14-35.86,14,14.06,0,27.63-1.76,35.86-14m.06-.09h0m.27-.41-.27.41.27-.41M241.28,175.11c0,1.18,0,2.35,0,3.53.42,30.65,12.93,43.25,43.7,43.36l8.17,0L285,222c-30.77-.11-43.28-12.71-43.7-43.36,0-1.18,0-2.35,0-3.53m528.19-29.83,0,0,0,0M379,126.55q-46.36,0-92.72,0,47.08-.06,94.17,0H379m349.43-.12h0m.22,0h0m.2,0h0m.22,0h0"/>
        <path d="M729,126.43h0c16.92,0,33.27,2.37,40.42,18.85l0,0c.18.42.36.86.53,1.3a81.47,81.47,0,0,1,5.9,29.23A58.12,58.12,0,0,1,767,207.25h0c-.07.11-.14.23-.22.34l-.27.41h0l-.06.08c-8.23,12.27-21.8,14-35.86,14h-.3l-27.5,0Q638,222,573.22,222H419.58l-39.45,0-39.29,0h-.06q-23.8,0-47.6-.06L285,222c-30.77-.11-43.28-12.71-43.7-43.36,0-1.18,0-2.35,0-3.53s0-2.08,0-3.12c.21-33.12,12.16-45.35,44.94-45.39h0q46.36-.06,92.72,0H507.2q59.31,0,118.61.05,51.18,0,102.35-.19H729m73.59-41.8h-.05L219.41,100.12l12.76,144,581.37-6.38L802.61,84.63"/>
        <path class="cls-2" d="M729,126.43h-.86q-51.17.22-102.35.19-59.29,0-118.61-.05H380.4q-47.08,0-94.17,0h0c-32.78,0-44.73,12.27-44.94,45.39,0,1,0,2.08,0,3.12s0,2.35,0,3.53c.42,30.65,12.93,43.25,43.7,43.36l8.17,0q23.81.08,47.6.06h.06l39.29,0,39.45,0H573.22q64.77,0,129.54.06l27.5,0h.3c14.06,0,27.63-1.76,35.86-14l.06-.08h0l.27-.41c.08-.11.15-.23.22-.34h0a58.12,58.12,0,0,0,8.95-31.41,81.47,81.47,0,0,0-5.9-29.23c-.17-.44-.35-.88-.53-1.3l0,0c-7.15-16.48-23.5-18.85-40.42-18.85h0">
            <animateTransform attributeName="transform"
                type="translate"
                from="0 0"
                to="0 10"
                begin="0s"
                dur="2s"
                repeatCount="indefinite"
            />
            <animate attributeName="fill-opacity"
                begin="0s" dur="1.4s"
                values="0.5;1;0.5"
                calcMode="linear"
                repeatCount="indefinite" 
            />
        </path>
    </g>
</svg>