<svg id="Capa_1" data-name="Capa 1" 
    xmlns="http://www.w3.org/2000/svg" 
    xmlns:xlink="http://www.w3.org/1999/xlink" viewBox="0 0 1366 1366">
    <defs>
        <style>
            .cls-1 {
                fill: none;
            }

            .cls-2 {
                fill: #fff;
            }

            .cls-3 {
                clip-path: url(#clip-path);
            }

            .cls-4 {
                clip-path: url(#clip-path-2);
            }

            .cls-5 {
                clip-path: url(#clip-path-3);
            }

            .cls-6 {
                clip-path: url(#clip-path-4);
            }   
            .cls-r {
                transition: all 1s
            }
            .cls-r:hover{
                transform: translate(0,3em);
            }
            
        </style>
        <clipPath id="clip-path">
            <polyline class="cls-1" points="430.22 648.7 616.93 648.7 616.93 698.82 430.22 698.82 430.22 648.7">
            </polyline>
        </clipPath>
        <clipPath id="clip-path-2">
            <polyline class="cls-1" points="430.22 551.25 616.93 551.25 616.93 601.36 430.22 601.36 430.22 551.25">
            </polyline>
        </clipPath>
        <clipPath id="clip-path-3">
            <polyline class="cls-1" points="1114.95 533.98 1412 533.98 1412 833 1114.95 833 1114.95 533.98">
            </polyline>
        </clipPath>
        <clipPath id="clip-path-4">
            <polyline class="cls-1" points="623.55 533.59 920.6 533.59 920.6 832.61 623.55 832.61 623.55 533.59">
            </polyline>
        </clipPath>
    </defs>
    <rect x="-9" y="-18" width="1421" height="1404"/>
    <path d="M28.23,815v-261H446V815ZM363.86,679c19.71-10.19,30.12-26,32-46.93,2.75-30.6-12.79-64.14-53.86-66.76-31.56-2-63.33-.9-95-.72-3.11,0-7.39,2.56-9,5.22-3.41,5.51-3,12.11-.41,18,2.38,5.4,7.61,5.82,12.94,5.8,26-.1,51.92-.17,77.87,0,17.35.12,28.74,9.27,31.32,24.88a58.79,58.79,0,0,1,.44,12.09c-.69,15.81-9.48,25.78-25,28.34a65.59,65.59,0,0,1-10.59.52q-36.66.06-73.33,0c-11.39,0-15.14,3.62-15.17,14.55,0,11.25,3.44,14.69,14.85,14.7,22.92,0,45.84.08,68.77,0,10.92-.05,19.5,4.41,24.85,13.68a73.83,73.83,0,0,1,8.21,20c5.28,23,9.78,46.13,14.59,69.21q2.65,12.8,15.42,10c2.8-.6,5.6-1.2,8.4-1.84,8.73-2,12.15-7,10.39-15.88-4.3-21.64-8.58-43.29-13.2-64.86C384.88,703.14,378.85,688.66,363.86,679ZM72.73,688.74H79c28.13,0,56.26,0,84.39,0,4.93,0,9-1.25,11.53-5.74,6.49-11.65-.39-23.55-13.58-23.55H54.2c-11.83,0-15.22,3.44-15.22,15.45Q39,726,39,777c0,17.79,1.78,19.55,19.75,19.45,10.09-.06,14-4,14-14.13q0-43.73,0-87.43Zm42.83-95.18c21.4,0,42.81.16,64.21-.17,3.36,0,7.68-1.43,9.83-3.78,4.91-5.38,3.8-12.44,1.76-18.67-1.8-5.49-7-6.64-12.44-6.63q-63.21.08-126.41,0c-10,0-13.58,4-13.53,15.09,0,10.25,3.65,14.1,13.38,14.11Q84,593.6,115.56,593.56Z">
    </path>
    <path class="cls-2 cls-r" d="M363.86,679c15,9.64,21,24.12,24.41,40,4.62,21.57,8.9,43.22,13.2,64.86,1.76,8.86-1.66,13.88-10.39,15.88-2.8.64-5.6,1.24-8.4,1.84q-12.75,2.76-15.42-10c-4.81-23.08-9.31-46.23-14.59-69.21a73.83,73.83,0,0,0-8.21-20c-5.35-9.27-13.93-13.73-24.85-13.68-22.93.11-45.85,0-68.77,0-11.41,0-14.87-3.45-14.85-14.7,0-10.93,3.78-14.55,15.17-14.55q36.68,0,73.33,0a65.59,65.59,0,0,0,10.59-.52c15.55-2.56,24.34-12.53,25-28.34a58.79,58.79,0,0,0-.44-12.09c-2.58-15.61-14-24.76-31.32-24.88-26-.19-51.91-.12-77.87,0-5.33,0-10.56-.4-12.94-5.8-2.6-5.87-3-12.47.41-18,1.65-2.66,5.93-5.2,9-5.22,31.68-.18,63.45-1.29,95,.72,41.07,2.62,56.61,36.16,53.86,66.76C394,653,383.57,668.83,363.86,679Z">
        <!-- R -->
        <animate attributeName="fill-opacity" begin="0s" dur="0.8s" values="0.5;1;0.5" calcMode="linear" repeatCount="indefinite" />
    </path>
    <path class="cls-2 cls-r" d="M72.73,688.74v6.18q0,43.71,0,87.43c0,10.16-3.9,14.07-14,14.13C40.76,796.58,39,794.82,39,777q0-51,0-102.09c0-12,3.39-15.45,15.22-15.45H161.34c13.19,0,20.07,11.9,13.58,23.55-2.5,4.49-6.6,5.75-11.53,5.74-28.13-.09-56.26,0-84.39,0Z">
        <!-- F 2 -->
    </path>
    <path class="cls-2 cls-r" d="M115.56,593.56q-31.61,0-63.2,0c-9.73,0-13.34-3.86-13.38-14.11,0-11.05,3.49-15.08,13.53-15.09q63.21,0,126.41,0c5.45,0,10.64,1.14,12.44,6.63,2,6.23,3.15,13.29-1.76,18.67-2.15,2.35-6.47,3.73-9.83,3.78C158.37,593.72,137,593.56,115.56,593.56Z">
        <!-- F 1 -->  
    </path>

    <polyline points="613.5 759.25 613.49 759.25 613.5 759.25 613.5 759.25"/>
    <path d="M874.53,821.69H427.07V554H874.53V821.69m-66.89-49.56-1.1.3c-1.11-2.07-2.24-4.12-3.32-6.21q-25.46-49.49-50.89-99c-13.23-25.71-26.18-51.58-39.91-77-4.22-7.82-9.49-15.81-16.2-21.42-20.35-17-47.81-7.92-54.3,17.34A51,51,0,0,0,640.6,598c-.15,13.24-.06,26.49-.06,39.73,0,49.84,0,99.68.1,149.51,0,3.5.62,7.55,2.45,10.36,4.63,7.13,25,7.25,29.7.14,1.93-2.92,2.52-7.19,2.53-10.85q.23-93,.11-186.1v-5.92a6.52,6.52,0,0,1,3.13,3.19q23.38,46.14,46.75,92.29c14.57,28.74,29.05,57.53,43.78,86.19,6.56,12.75,15.75,23.09,29.84,27.75,19.09,6.31,36.15-2.74,41.46-22.15a61.87,61.87,0,0,0,1.79-16q.18-91.21.08-182.44c0-17.25-2-19.32-19.13-19.29-12,0-15.49,3.51-15.49,15.6q0,93.33,0,186.64v5.46m-287,.3q-34.71,0-69.44,0c-10.3,0-14.06,3.85-14.12,14.26,0,.7,0,1.4,0,2.09.14,9.63,4.07,13.59,13.74,13.63,14.09.05,28.19,0,42.29,0q48.81,0,97.63,0c4.55,0,9-.55,11.54-4.68,3.79-6,3.37-12.8,1-19-2.19-5.66-7.6-6.37-13.16-6.35-16.86.08-33.71.07-50.57.06H520.66m-4.2-208c-22.12,0-44.24,0-66.36,0-8.71,0-12.77,4.14-13,12.78,0,1.75-.06,3.49,0,5.23.35,7.63,4.55,12,12.24,12,44.41.08,88.82.13,133.23-.16a13.42,13.42,0,0,0,9.36-4.47c4.36-5.65,3.54-12.66,1.28-18.93-2-5.71-7.45-6.53-13-6.5-15.16.07-30.32.06-45.48.05H516.46m-9,127.62c19.16,0,38.33,0,57.49,0,5.16,0,9.28-1.62,11.69-6.31C583,673.49,576,662,562.41,662H453.7c-13.37,0-16.81,3.46-16.6,16.65.15,9.37,4.14,13.42,13.42,13.43q28.49,0,57,0">
    <!-- FONDO -->
    </path>
    <path class="cls-2" d="M520.66,772.43c23.15,0,46.3.06,69.44,0,5.56,0,11,.69,13.16,6.35,2.41,6.25,2.83,13-1,19-2.59,4.13-7,4.68-11.54,4.68q-48.81-.08-97.63,0c-14.1,0-28.2,0-42.29,0-9.67,0-13.6-4-13.74-13.63,0-.69,0-1.39,0-2.09.06-10.41,3.82-14.25,14.12-14.26q24.31,0,48.61,0h20.83">
        <!-- E 3 -->
        <animateTransform attributeName="transform"
            type="translate"
            from="0 0"
            to="150 0"
            begin="0s"
            dur="2s"
            repeatCount="indefinite"
        />
    </path>
    <path class="cls-2" d="M516.46,564.43c21.25,0,42.49.06,63.74,0,5.59,0,11,.79,13,6.5,2.26,6.27,3.08,13.28-1.28,18.93a13.42,13.42,0,0,1-9.36,4.47c-44.41.29-88.82.24-133.23.16-7.69,0-11.89-4.35-12.24-12-.08-1.74-.06-3.48,0-5.23.22-8.64,4.28-12.76,13-12.78C472.22,564.38,494.34,564.43,516.46,564.43Z">
        <!-- E 1 -->
        <animateTransform attributeName="transform"
            type="translate"
            from="0 0"
            to="150 0"
            begin="0s"
            dur="2s"
            repeatCount="indefinite"
        />
    </path>
    <path class="cls-2" d="M507.49,692.05q-28.49,0-57,0c-9.28,0-13.27-4.06-13.42-13.43-.21-13.19,3.23-16.65,16.6-16.65H562.41c13.62,0,20.54,11.53,14.26,23.82-2.41,4.69-6.53,6.33-11.69,6.31C545.82,692,526.65,692.05,507.49,692.05Z">
        <!-- E 2 -->
        <animateTransform attributeName="transform"
            type="translate"
            from="0 0"
            to="150 0"
            begin="0s"
            dur="2s"
            repeatCount="indefinite"
        />
    </path>
    <g class="cls-3">
        <path d="M468.36,691.9h0m113.76,0h0m-101.39,0h0m60.66,0h0m0,0h0m60.73-4.38c-2.59,3.86-6.86,4.41-11.27,4.41,4.41,0,8.68-.55,11.27-4.41m0,0h0m.09-.13-.09.13.09-.13M437.1,677.14v1.11c.14,9.63,4.07,13.59,13.74,13.62h0c-9.67,0-13.6-4-13.74-13.62v-1.11m166-9.38h0m-122.72-5.88h0m109.81,0h0m.07,0h0m.06,0h0m.07,0h0">
        </path>
        <path d="M590.37,661.84h0c5.32,0,10.46.74,12.7,5.92h0c.06.13.11.27.17.41a25.75,25.75,0,0,1,1.85,9.19,18.27,18.27,0,0,1-2.81,9.87h0a.61.61,0,0,0-.07.1l-.09.13h0v0c-2.59,3.86-6.86,4.41-11.27,4.41h-8.74l-40.71,0h-73q-7.47,0-14.95,0h-2.57c-9.67,0-13.6-4-13.74-13.62v-2.09c.06-10.41,3.82-14.26,14.12-14.27h69.44l37.28,0q16.08,0,32.16-.06h.27M613.5,648.7h0l-183.26,4.87,4,45.25,182.7-2L613.5,648.7">
            <!-- E 2 -->
            <animateTransform attributeName="transform"
                type="translate"
                from="0 0"
                to="150 0"
                begin="0s"
                dur="2s"
                repeatCount="indefinite"
            />
        </path>
        <path class="cls-2" d="M590.37,661.84h-.27q-16.08.07-32.16.06l-37.28,0H451.22c-10.3,0-14.06,3.86-14.12,14.27v2.09c.14,9.63,4.07,13.59,13.74,13.62h2.57q7.47,0,14.95,0h73l40.71,0h8.74c4.41,0,8.68-.55,11.27-4.41v0h0l.09-.13a.61.61,0,0,1,.07-.1h0a18.27,18.27,0,0,0,2.81-9.87,25.75,25.75,0,0,0-1.85-9.19c-.06-.14-.11-.28-.17-.41h0c-2.24-5.18-7.38-5.92-12.7-5.92h0">
            <!-- E 2 -->
            <animateTransform attributeName="transform"
                type="translate"
                from="0 0"
                to="150 0"
                begin="0s"
                dur="2s"
                repeatCount="indefinite"
            />
        </path>
    </g>
    <g class="cls-4">
        <path d="M468.36,594.45h0m113.76,0h0m-101.39,0h0m60.66,0h0m0,0h0m60.73-4.38c-2.59,3.85-6.86,4.41-11.27,4.41,4.41,0,8.68-.56,11.27-4.41m0,0h0m.09-.13-.09.13.09-.13M437.1,579.68v1.11c.14,9.63,4.07,13.59,13.74,13.63h0c-9.67,0-13.6-4-13.74-13.63v-1.11m166-9.37h0m-122.72-5.89-29.14,0,29.59,0h-.45m109.81,0h0m.07,0h0m.06,0h0m.07,0h0"/>
        <path d="M590.37,564.38h0c5.32,0,10.46.75,12.7,5.93h0c.06.13.11.27.17.41a25.7,25.7,0,0,1,1.85,9.18,18.23,18.23,0,0,1-2.81,9.87h0l-.07.11-.09.13h0v0c-2.59,3.85-6.86,4.41-11.27,4.41h-8.74q-20.36,0-40.71,0h-73l-14.95,0h-2.57c-9.67,0-13.6-4-13.74-13.63V578.7c.06-10.41,3.82-14.25,14.12-14.26h0l29.14,0h40.3l37.28,0q16.08,0,32.16-.06h.27m23.13-13.13h0l-183.26,4.87,4,45.24,182.7-2-3.43-48.11">
            
        </path>
        <path class="cls-2" d="M590.37,564.38h-.27q-16.08.06-32.16.06l-37.28,0H480.81l-29.59,0h0c-10.3,0-14.06,3.85-14.12,14.26v2.09c.14,9.63,4.07,13.59,13.74,13.63h2.57l14.95,0h73q20.36,0,40.71,0h8.74c4.41,0,8.68-.56,11.27-4.41v0h0l.09-.13.07-.11h0a18.23,18.23,0,0,0,2.81-9.87,25.7,25.7,0,0,0-1.85-9.18c-.06-.14-.11-.28-.17-.41h0c-2.24-5.18-7.38-5.92-12.7-5.93h0">
            <!-- E 1 -->
            <animateTransform attributeName="transform"
                type="translate"
                from="0 0"
                to="150 0"
                begin="0s"
                dur="2s"
                repeatCount="indefinite"
            />
        </path>
    </g>
    <path d="M1155,817.15H857.23V554.87H1155Zm-280.23-143c-.11,33.33,6.05,56.37,18.86,77.67,37.58,62.44,120.05,72.89,171.06,21.59,46.25-46.5,47.91-128.77,3.57-177.06-39.63-43.17-103.14-48.57-148.57-11.9C888.63,609.49,875.57,643.41,874.8,674.11Z">
    </path>
    <path class="cls-2" d="M874.8,674.11c.77-30.7,13.83-64.62,44.92-89.7,45.43-36.67,108.94-31.27,148.57,11.9,44.34,48.29,42.68,130.56-3.57,177.06-51,51.3-133.48,40.85-171.06-21.59C880.85,730.48,874.69,707.44,874.8,674.11Zm189.12,8.45c-.63-22.34-5.54-43.39-18.8-61.94-28.67-40.11-84.5-40.8-114.09-1.4C905.21,653.6,904.65,710.1,929.77,745c30.27,42.06,87,41.5,116.35-1.14C1058.84,725.41,1063.4,704.6,1063.92,682.56Z">
        <!-- O -->
        <animate attributeName="fill-opacity"
            begin="0s" dur="0.2s"
            values="0;1;0;0;0;0;0;0" 
            calcMode="linear"
            repeatCount="indefinite" />

    </path>
    <path d="M1063.92,682.56c-.52,22-5.08,42.85-17.8,61.3-29.4,42.64-86.08,43.2-116.35,1.14-25.12-34.9-24.56-91.4,1.26-125.78,29.59-39.4,85.42-38.71,114.09,1.4C1058.38,639.17,1063.29,660.22,1063.92,682.56Z"/>
    <g class="cls-5 cls-r">
        <path d="M1299.85,806.29h0M1147.18,803h0m14.59-5.09c-2.41,3.4-8.48,5.09-14.57,5.09,6.09,0,12.16-1.69,14.57-5.09m.09-.13,0,0,0,0m-29.61-.1,0,0,0,0m0-.05,0,0,0,0m197.17-15.12c-4.27,15-15.65,23.76-29.53,23.76,13.88,0,25.26-8.72,29.53-23.76m0-.12v0M1164.53,594.88h0a6.48,6.48,0,0,1,3.13,3.19l46.76,92.29c14.56,28.75,29,57.53,43.78,86.19,6.55,12.75,15.74,23.09,29.83,27.75l.18.06-.18-.06c-14.09-4.66-23.28-15-29.83-27.75-14.73-28.66-29.22-57.44-43.78-86.19l-46.76-92.29a6.48,6.48,0,0,0-3.13-3.19m20.72-26.18.08.07-.08-.07m-.26-.21.14.11-.14-.11m127.32-4.09h0m.22,0h0m0,0h0m-149.93-4.34c-14.25,0-27.35,9.61-31.57,26.05,4.22-16.44,17.32-26,31.57-26.05m0,0h0M1386.34,534H1115v20h248.68V821.66H1115v5.42L1412,833l-25.66-299">
        </path>
        <path d="M1162.61,560.06h0a35.25,35.25,0,0,1,22.37,8.43l.14.11.12.1.08.07h0c6.71,5.62,12,13.6,16.2,21.43,13.73,25.44,26.67,51.3,39.9,77l50.9,99c1.07,2.09,2.21,4.14,3.32,6.21l1.09-.3V580c0-12.1,3.48-15.59,15.5-15.61h.3c16.8,0,18.83,2.15,18.83,19.29v77q0,52.74-.08,105.48a61.37,61.37,0,0,1-1.8,16h0a2.5,2.5,0,0,1-.07.26v0l0,.1c-4.27,15-15.65,23.76-29.53,23.76h0a37.67,37.67,0,0,1-11.64-1.93l-.18-.06c-14.09-4.66-23.28-15-29.83-27.75-14.73-28.66-29.22-57.44-43.78-86.19l-46.76-92.29a6.48,6.48,0,0,0-3.13-3.19v5.92q0,33.44,0,66.88,0,59.61-.11,119.23c0,3.65-.61,7.92-2.54,10.84h0l0,0,0,0-.07.1c-2.41,3.4-8.48,5.09-14.57,5.09h0c-6.25,0-12.51-1.77-14.91-5.29l0,0v0l0,0,0,0h0c-1.83-2.82-2.44-6.87-2.45-10.37q-.13-45.56-.11-91.1,0-29.21,0-58.41c0-7.34,0-14.69,0-22,0-5.89,0-11.79.09-17.69a51.08,51.08,0,0,1,1.32-11.9h0c4.22-16.44,17.32-26,31.57-26.05h0m201-6H1115V821.66h248.68V554"/>
        <path class="cls-2" d="M1223.65,634.82a5.83,5.83,0,0,1-.19-2.72c-7.2-14-14.44-28-21.93-41.9-4.22-7.83-9.49-15.81-16.2-21.43l-.08-.07-.12-.1-.14-.11a35.25,35.25,0,0,0-22.37-8.43h0c-14.25,0-27.35,9.61-31.57,26.05a51.08,51.08,0,0,0-1.32,11.9c-.07,5.9-.09,11.8-.09,17.69,0,7.35,0,14.7,0,22q0,29.21,0,58.41,0,45.55.11,91.1c0,3.5.62,7.55,2.45,10.37l0,0,0,0v0l0,0c2.4,3.52,8.66,5.29,14.91,5.29h0c6.09,0,12.16-1.69,14.57-5.09l.07-.1,0,0,0,0c1.93-2.92,2.53-7.19,2.54-10.84q.13-59.62.11-119.23,0-33.43,0-66.88v-5.92a6.48,6.48,0,0,1,3.13,3.19l24.06,47.48.27.08c2.06.72,3.53,2.21,5.47,3,1.73.71,4.16.45,6,.36a57.49,57.49,0,0,0,9.91-1.68c1.38-.32,2.77-.59,4.14-1,.7-.2,2.33-1.16,3.42-1.55l0-.1c-.74-2-.25-3.8,0-5.79A5.16,5.16,0,0,1,1223.65,634.82Z">
            <!-- N 1_1 -->
            <animate attributeName="fill-opacity"
                begin="0s" dur="1.4s"
                values="0.5;1;0.5"
                calcMode="linear"
                repeatCount="indefinite" />
        </path>
        <path class="cls-2" d="M1331.37,583.69c0-17.14-2-19.29-18.83-19.29h-.3c-12,0-15.5,3.51-15.5,15.61V772.1l-1.09.3c-1.11-2.07-2.25-4.12-3.32-6.21l-24-46.67a4.31,4.31,0,0,1-3.8.31,17.4,17.4,0,0,0-6.52-.78,5.06,5.06,0,0,1-3.25,3.83c-3.19,1.23-6.72,2.53-8.66,5.39-1.57,2.31-2.51,4.77-4.28,7a4.45,4.45,0,0,1-4,1.41q10.13,20,20.33,39.87c6.55,12.75,15.74,23.09,29.83,27.75l.18.06a37.67,37.67,0,0,0,11.64,1.93h0c13.88,0,25.26-8.72,29.53-23.76l0-.1v0a2.5,2.5,0,0,0,.07-.26,61.37,61.37,0,0,0,1.8-16q.11-52.74.08-105.48Z">
            <!-- N 2_1 -->
            <animate attributeName="fill-opacity"
                begin="0s" dur="1.4s"
                values="0.5;1;0.5"
                calcMode="linear"
                repeatCount="indefinite" />
        </path>

        <path class="cls-2" d="M1220.23,626.93c-4.37-4.37-2.42-2.43-3.53-5.14-1-2.48-2.57-5-3.14-7.66a.17.17,0,0,0,0-.07c-5.15,1.86-10.28,3.75-15.49,5.44-5.87,1.9-11.3,2.27-16.57,5.57l-.07,0q5.68,11.22,11.35,22.47c2,4,4.56,7.62,9.86,7.64,7.79,0,14.38-4.05,19.58-9.63,4.41-4.73,3.19-9.59.94-14.22C1221.23,627.93,1221.23,627.93,1220.23,626.93Z">
            <!-- N 1_3 -->
            <animate attributeName="fill-opacity"
                begin="0s" dur="1.4s"
                values="0.5;1;0.5"
                calcMode="linear"
                repeatCount="indefinite" />
        </path>

        <path class="cls-2" d="M1241.1,741.93c2.44,4.34,1.89,2.29,3,5,1,2.48,3.67,4.85,4.23,7.46a.17.17,0,0,1,0,.07c5.15-1.85,10.29-3.74,15.5-5.43,5.87-1.91,11.3-2.28,16.57-5.58l.07,0q-5.68-11.24-11.35-22.47c-2-4-4.56-7.63-9.87-7.65-7.78,0-15.66,3.09-19.58,9.63-3.58,6-3.58,7-2.58,12C1238.1,737.93,1239.92,739.85,1241.1,741.93Z">
            <!-- N 2_3 -->
            <animate attributeName="fill-opacity"
                begin="0s" dur="1.4s"
                values="0.5;1;0.5"
                calcMode="linear"
                repeatCount="indefinite" />
        </path>
    </g>
</svg>